  0
SECTION
  2
HEADER
  9
$ACADVER
  1
AC1009
  9
$INSBASE
 10
0.0
 20
0.0
 30
0.0
  9
$EXTMIN
 10
0.0
 20
0.0
 30
0.0
  9
$EXTMAX
 10
0.0
 20
0.0
 30
0.0
  0
ENDSEC
  0
SECTION
  2
TABLES
  0
TABLE
  2
VPORT
 70
0
  0
ENDTAB
  0
TABLE
  2
LTYPE
 70
1
  0
LTYPE
  2
CONTINUOUS
 70
0
  3
Solid line
 72
65
 73
0
 40
0.0
  0
ENDTAB
  0
TABLE
  2
LAYER
 70
1
  0
LAYER
  2
0
 70
64
 62
7
  6
continuous
  0
ENDTAB
  0
TABLE
  2
STYLE
 70
1
  0
STYLE
  2
STANDARD
 70
0
 40
0
 41
1.0
 50
0.0
 71
0
 42
1
 3
ARIAL.TTF
 4

  0
ENDTAB
  0
TABLE
  2
VIEW
 70
0
  0
ENDTAB
  0
ENDSEC
  0
SECTION
  2
BLOCKS
  0
ENDSEC
  0
SECTION
  2
ENTITIES
  0
POLYLINE
  8
0
 62
0
 70
1
 66
1
 10
0.0
 20
0.0
 30
0.0
  0
VERTEX
  8
0
 10
43.863154
 20
-99.79849
 30
0.0
  0
VERTEX
  8
0
 10
38.9818905332
 20
-98.9033195117
 30
0.0
  0
VERTEX
  8
0
 10
34.2834333906
 20
-97.5850035938
 30
0.0
  0
VERTEX
  8
0
 10
29.785287959
 20
-95.8533493164
 30
0.0
  0
VERTEX
  8
0
 10
25.504959625
 20
-93.71816375
 30
0.0
  0
VERTEX
  8
0
 10
21.4599537754
 20
-91.1892539648
 30
0.0
  0
VERTEX
  8
0
 10
17.6677757969
 20
-88.2764270313
 30
0.0
  0
VERTEX
  8
0
 10
14.1459310762
 20
-84.9894900195
 30
0.0
  0
VERTEX
  8
0
 10
10.911925
 20
-81.33825
 30
0.0
  0
VERTEX
  8
0
 10
8.18893928528
 20
-77.6053071759
 30
0.0
  0
VERTEX
  8
0
 10
5.83016044889
 20
-73.6300607407
 30
0.0
  0
VERTEX
  8
0
 10
3.8464170025
 20
-69.43843375
 30
0.0
  0
VERTEX
  8
0
 10
2.24853745778
 20
-65.0563492593
 30
0.0
  0
VERTEX
  8
0
 10
1.04735032639
 20
-60.5097303241
 30
0.0
  0
VERTEX
  8
0
 10
0.25368412
 20
-55.8245
 30
0.0
  0
VERTEX
  8
0
 10
0.02818712
 20
-52.2140925926
 30
0.0
  0
VERTEX
  8
0
 10
0.02818712
 20
-47.8558474074
 30
0.0
  0
VERTEX
  8
0
 10
0.25368412
 20
-44.24544
 30
0.0
  0
VERTEX
  8
0
 10
1.0734053378
 20
-39.4558532639
 30
0.0
  0
VERTEX
  8
0
 10
2.31858811574
 20
-34.8285927778
 30
0.0
  0
VERTEX
  8
0
 10
3.97056880062
 20
-30.386675625
 30
0.0
  0
VERTEX
  8
0
 10
6.01068373926
 20
-26.1531188889
 30
0.0
  0
VERTEX
  8
0
 10
8.42026927845
 20
-22.1509396528
 30
0.0
  0
VERTEX
  8
0
 10
11.180661765
 20
-18.403155
 30
0.0
  0
VERTEX
  8
0
 10
14.2731975457
 20
-14.9327820139
 30
0.0
  0
VERTEX
  8
0
 10
17.6792129674
 20
-11.7628377778
 30
0.0
  0
VERTEX
  8
0
 10
21.3800443769
 20
-8.916339375
 30
0.0
  0
VERTEX
  8
0
 10
25.3570281209
 20
-6.41630388889
 30
0.0
  0
VERTEX
  8
0
 10
29.5915005464
 20
-4.28574840278
 30
0.0
  0
VERTEX
  8
0
 10
34.064798
 20
-2.54769
 30
0.0
  0
VERTEX
  8
0
 10
38.633568963
 20
-1.27705333333
 30
0.0
  0
VERTEX
  8
0
 10
43.385347037
 20
-0.35545
 30
0.0
  0
VERTEX
  8
0
 10
47.200672
 20
0.0
 30
0.0
  0
VERTEX
  8
0
 10
47.683959
 20
-0.44001
 30
0.0
  0
VERTEX
  8
0
 10
47.01456528
 20
-1.42833696
 30
0.0
  0
VERTEX
  8
0
 10
45.38101332
 20
-3.91213128
 30
0.0
  0
VERTEX
  8
0
 10
42.97012512
 20
-7.60521312
 30
0.0
  0
VERTEX
  8
0
 10
39.96872268
 20
-12.22140264
 30
0.0
  0
VERTEX
  8
0
 10
36.563628
 20
-17.47452
 30
0.0
  0
VERTEX
  8
0
 10
33.139757288
 20
-22.75371432
 30
0.0
  0
VERTEX
  8
0
 10
30.086124304
 20
-27.44241936
 30
0.0
  0
VERTEX
  8
0
 10
27.595713576
 20
-31.24590024
 30
0.0
  0
VERTEX
  8
0
 10
25.861509632
 20
-33.86942208
 30
0.0
  0
VERTEX
  8
0
 10
25.076497
 20
-35.01825
 30
0.0
  0
VERTEX
  8
0
 10
23.717029875
 20
-37.40478125
 30
0.0
  0
VERTEX
  8
0
 10
23.301698
 20
-40.07962
 30
0.0
  0
VERTEX
  8
0
 10
23.4625829375
 20
-41.7463601563
 30
0.0
  0
VERTEX
  8
0
 10
23.933279
 20
-44.95693125
 30
0.0
  0
VERTEX
  8
0
 10
24.6961878125
 20
-49.5993067188
 30
0.0
  0
VERTEX
  8
0
 10
25.733711
 20
-55.56146
 30
0.0
  0
VERTEX
  8
0
 10
27.2976696875
 20
-64.1980735938
 30
0.0
  0
VERTEX
  8
0
 10
28.3237415
 20
-68.95945125
 30
0.0
  0
VERTEX
  8
0
 10
29.2052815625
 20
-71.3126257813
 30
0.0
  0
VERTEX
  8
0
 10
30.335645
 20
-72.72463
 30
0.0
  0
VERTEX
  8
0
 10
31.308785536
 20
-73.64009264
 30
0.0
  0
VERTEX
  8
0
 10
32.758350888
 20
-74.18338872
 30
0.0
  0
VERTEX
  8
0
 10
35.775252272
 20
-74.45144848
 30
0.0
  0
VERTEX
  8
0
 10
41.450400904
 20
-74.54120216
 30
0.0
  0
VERTEX
  8
0
 10
50.874708
 20
-74.54958
 30
0.0
  0
VERTEX
  8
0
 10
55.209294
 20
-74.54958
 30
0.0
  0
VERTEX
  8
0
 10
59.54388
 20
-74.54958
 30
0.0
  0
VERTEX
  8
0
 10
63.878466
 20
-74.54958
 30
0.0
  0
VERTEX
  8
0
 10
68.213052
 20
-74.54958
 30
0.0
  0
VERTEX
  8
0
 10
69.720734
 20
-73.81195
 30
0.0
  0
VERTEX
  8
0
 10
70.9822912222
 20
-73.1060530093
 30
0.0
  0
VERTEX
  8
0
 10
72.2085897778
 20
-71.9821607407
 30
0.0
  0
VERTEX
  8
0
 10
73.7853755
 20
-69.86469125
 30
0.0
  0
VERTEX
  8
0
 10
76.0983942222
 20
-66.1780625926
 30
0.0
  0
VERTEX
  8
0
 10
79.5333917778
 20
-60.3466928241
 30
0.0
  0
VERTEX
  8
0
 10
84.476114
 20
-51.795
 30
0.0
  0
VERTEX
  8
0
 10
87.909220552
 20
-45.83628544
 30
0.0
  0
VERTEX
  8
0
 10
90.953554896
 20
-40.54477232
 30
0.0
  0
VERTEX
  8
0
 10
93.418135064
 20
-36.25303248
 30
0.0
  0
VERTEX
  8
0
 10
95.111979088
 20
-33.29363776
 30
0.0
  0
VERTEX
  8
0
 10
95.844105
 20
-31.99916
 30
0.0
  0
VERTEX
  8
0
 10
96.412601
 20
-30.935
 30
0.0
  0
VERTEX
  8
0
 10
97.45751
 20
-34.13632
 30
0.0
  0
VERTEX
  8
0
 10
98.6248134844
 20
-38.1610295313
 30
0.0
  0
VERTEX
  8
0
 10
99.413234125
 20
-41.99961625
 30
0.0
  0
VERTEX
  8
0
 10
99.8594149531
 20
-45.8812173438
 30
0.0
  0
VERTEX
  8
0
 10
99.999999
 20
-50.03497
 30
0.0
  0
VERTEX
  8
0
 10
99.8031277731
 20
-54.6281225926
 30
0.0
  0
VERTEX
  8
0
 10
99.2130221852
 20
-59.1054074074
 30
0.0
  0
VERTEX
  8
0
 10
98.230444375
 20
-63.464045
 30
0.0
  0
VERTEX
  8
0
 10
96.8561564815
 20
-67.7012559259
 30
0.0
  0
VERTEX
  8
0
 10
95.0909206435
 20
-71.8142607407
 30
0.0
  0
VERTEX
  8
0
 10
92.935499
 20
-75.80028
 30
0.0
  0
VERTEX
  8
0
 10
90.2990403663
 20
-79.7570140055
 30
0.0
  0
VERTEX
  8
0
 10
87.3186226708
 20
-83.4190927846
 30
0.0
  0
VERTEX
  8
0
 10
84.0192092222
 20
-86.7692314815
 30
0.0
  0
VERTEX
  8
0
 10
80.4257633292
 20
-89.7901452401
 30
0.0
  0
VERTEX
  8
0
 10
76.5632483004
 20
-92.4645492044
 30
0.0
  0
VERTEX
  8
0
 10
72.4566274444
 20
-94.7751585185
 30
0.0
  0
VERTEX
  8
0
 10
68.13086407
 20
-96.7046883265
 30
0.0
  0
VERTEX
  8
0
 10
63.6109214856
 20
-98.2358537723
 30
0.0
  0
VERTEX
  8
0
 10
58.921763
 20
-99.35137
 30
0.0
  0
VERTEX
  8
0
 10
55.6602152031
 20
-99.7321571875
 30
0.0
  0
VERTEX
  8
0
 10
51.341983875
 20
-99.9550225
 30
0.0
  0
VERTEX
  8
0
 10
47.0489898594
 20
-99.9878415625
 30
0.0
  0
SEQEND
  8
0
  0
ENDSEC
  0
EOF
