  0
SECTION
  2
HEADER
  9
$ACADVER
  1
AC1009
  9
$INSBASE
 10
0.0
 20
0.0
 30
0.0
  9
$EXTMIN
 10
0.0
 20
0.0
 30
0.0
  9
$EXTMAX
 10
0.0
 20
0.0
 30
0.0
  0
ENDSEC
  0
SECTION
  2
TABLES
  0
TABLE
  2
VPORT
 70
0
  0
ENDTAB
  0
TABLE
  2
LTYPE
 70
1
  0
LTYPE
  2
CONTINUOUS
 70
0
  3
Solid line
 72
65
 73
0
 40
0.0
  0
ENDTAB
  0
TABLE
  2
LAYER
 70
1
  0
LAYER
  2
0
 70
64
 62
7
  6
continuous
  0
ENDTAB
  0
TABLE
  2
STYLE
 70
1
  0
STYLE
  2
STANDARD
 70
0
 40
0
 41
1.0
 50
0.0
 71
0
 42
1
 3
ARIAL.TTF
 4

  0
ENDTAB
  0
TABLE
  2
VIEW
 70
0
  0
ENDTAB
  0
ENDSEC
  0
SECTION
  2
BLOCKS
  0
ENDSEC
  0
SECTION
  2
ENTITIES
  0
POLYLINE
  8
0
 62
0
 70
1
 66
1
 10
0.0
 20
0.0
 30
0.0
  0
VERTEX
  8
0
 10
58.908797
 20
-57.68227
 30
0.0
  0
VERTEX
  8
0
 10
58.908797
 20
-54.18826
 30
0.0
  0
VERTEX
  8
0
 10
58.908797
 20
-50.69425
 30
0.0
  0
VERTEX
  8
0
 10
58.908797
 20
-47.20024
 30
0.0
  0
VERTEX
  8
0
 10
61.658937
 20
-47.20024
 30
0.0
  0
VERTEX
  8
0
 10
64.409077
 20
-47.20024
 30
0.0
  0
VERTEX
  8
0
 10
67.159227
 20
-47.20024
 30
0.0
  0
VERTEX
  8
0
 10
69.909377
 20
-47.20024
 30
0.0
  0
VERTEX
  8
0
 10
69.909377
 20
-44.20537
 30
0.0
  0
VERTEX
  8
0
 10
69.909377
 20
-41.2105
 30
0.0
  0
VERTEX
  8
0
 10
69.909377
 20
-38.215635
 30
0.0
  0
VERTEX
  8
0
 10
69.909377
 20
-35.22077
 30
0.0
  0
VERTEX
  8
0
 10
65.534147
 20
-35.22077
 30
0.0
  0
VERTEX
  8
0
 10
61.158917
 20
-35.22077
 30
0.0
  0
VERTEX
  8
0
 10
56.783687
 20
-35.22077
 30
0.0
  0
VERTEX
  8
0
 10
52.408457
 20
-35.22077
 30
0.0
  0
VERTEX
  8
0
 10
48.0332245
 20
-35.22077
 30
0.0
  0
VERTEX
  8
0
 10
43.657992
 20
-35.22077
 30
0.0
  0
VERTEX
  8
0
 10
39.2827595
 20
-35.22077
 30
0.0
  0
VERTEX
  8
0
 10
34.907527
 20
-35.22077
 30
0.0
  0
VERTEX
  8
0
 10
34.907527
 20
-38.215635
 30
0.0
  0
VERTEX
  8
0
 10
34.907527
 20
-41.2105
 30
0.0
  0
VERTEX
  8
0
 10
34.907527
 20
-44.20537
 30
0.0
  0
VERTEX
  8
0
 10
34.907527
 20
-47.20024
 30
0.0
  0
VERTEX
  8
0
 10
37.907682
 20
-47.20024
 30
0.0
  0
VERTEX
  8
0
 10
40.907837
 20
-47.20024
 30
0.0
  0
VERTEX
  8
0
 10
43.908002
 20
-47.20024
 30
0.0
  0
VERTEX
  8
0
 10
46.908167
 20
-47.20024
 30
0.0
  0
VERTEX
  8
0
 10
46.908167
 20
-50.69425
 30
0.0
  0
VERTEX
  8
0
 10
46.908167
 20
-54.18826
 30
0.0
  0
VERTEX
  8
0
 10
46.908167
 20
-57.68227
 30
0.0
  0
VERTEX
  8
0
 10
46.908167
 20
-61.17628
 30
0.0
  0
VERTEX
  8
0
 10
46.908167
 20
-64.67029
 30
0.0
  0
VERTEX
  8
0
 10
46.908167
 20
-68.1643
 30
0.0
  0
VERTEX
  8
0
 10
49.908322
 20
-68.1643
 30
0.0
  0
VERTEX
  8
0
 10
52.908477
 20
-68.1643
 30
0.0
  0
VERTEX
  8
0
 10
55.908637
 20
-68.1643
 30
0.0
  0
VERTEX
  8
0
 10
58.908797
 20
-68.1643
 30
0.0
  0
VERTEX
  8
0
 10
58.908797
 20
-64.67029
 30
0.0
  0
VERTEX
  8
0
 10
58.908797
 20
-61.17628
 30
0.0
  0
SEQEND
  8
0
  0
POLYLINE
  8
0
 62
0
 70
1
 66
1
 10
0.0
 20
0.0
 30
0.0
  0
VERTEX
  8
0
 10
32.139047
 20
-73.66052
 30
0.0
  0
VERTEX
  8
0
 10
28.893217
 20
-70.0626
 30
0.0
  0
VERTEX
  8
0
 10
28.4097965918
 20
-68.0905471137
 30
0.0
  0
VERTEX
  8
0
 10
27.586559449
 20
-63.9333038484
 30
0.0
  0
VERTEX
  8
0
 10
26.5744716939
 20
-58.4474875802
 30
0.0
  0
VERTEX
  8
0
 10
25.524499449
 20
-52.4897156851
 30
0.0
  0
VERTEX
  8
0
 10
24.5876088367
 20
-46.9166055394
 30
0.0
  0
VERTEX
  8
0
 10
23.9147659796
 20
-42.584774519
 30
0.0
  0
VERTEX
  8
0
 10
23.656937
 20
-40.35084
 30
0.0
  0
VERTEX
  8
0
 10
24.085392
 20
-37.72589
 30
0.0
  0
VERTEX
  8
0
 10
25.680217
 20
-34.97119
 30
0.0
  0
VERTEX
  8
0
 10
26.58414204
 20
-33.6356836
 30
0.0
  0
VERTEX
  8
0
 10
28.39281812
 20
-30.8982772
 30
0.0
  0
VERTEX
  8
0
 10
30.91110268
 20
-27.056662
 30
0.0
  0
VERTEX
  8
0
 10
33.94385316
 20
-22.4085292
 30
0.0
  0
VERTEX
  8
0
 10
37.295927
 20
-17.25157
 30
0.0
  0
VERTEX
  8
0
 10
41.38072825
 20
-10.9667845313
 30
0.0
  0
VERTEX
  8
0
 10
44.7818145
 20
-5.75448125
 30
0.0
  0
VERTEX
  8
0
 10
47.1442445
 20
-2.15718484375
 30
0.0
  0
VERTEX
  8
0
 10
48.113077
 20
-0.71742
 30
0.0
  0
VERTEX
  8
0
 10
50.546157
 20
-0.265918888889
 30
0.0
  0
VERTEX
  8
0
 10
55.4180636667
 20
-0.567637777778
 30
0.0
  0
VERTEX
  8
0
 10
61.283917
 20
-1.53309
 30
0.0
  0
VERTEX
  8
0
 10
65.78981932
 20
-2.7068516
 30
0.0
  0
VERTEX
  8
0
 10
70.21377796
 20
-4.25749
 30
0.0
  0
VERTEX
  8
0
 10
74.48481244
 20
-6.1534956
 30
0.0
  0
VERTEX
  8
0
 10
78.53194228
 20
-8.3633588
 30
0.0
  0
VERTEX
  8
0
 10
82.284187
 20
-10.85557
 30
0.0
  0
VERTEX
  8
0
 10
85.6785509062
 20
-13.7202078125
 30
0.0
  0
VERTEX
  8
0
 10
88.91168075
 20
-17.140245
 30
0.0
  0
VERTEX
  8
0
 10
91.6987762187
 20
-20.7816221875
 30
0.0
  0
VERTEX
  8
0
 10
93.755037
 20
-24.31028
 30
0.0
  0
VERTEX
  8
0
 10
95.296252
 20
-28.1625625
 30
0.0
  0
VERTEX
  8
0
 10
95.858987
 20
-30.70929
 30
0.0
  0
VERTEX
  8
0
 10
95.19379144
 20
-32.05626496
 30
0.0
  0
VERTEX
  8
0
 10
93.46050852
 20
-35.19774128
 30
0.0
  0
VERTEX
  8
0
 10
90.91804388
 20
-39.68787612
 30
0.0
  0
VERTEX
  8
0
 10
87.82530316
 20
-45.08082664
 30
0.0
  0
VERTEX
  8
0
 10
84.441192
 20
-50.93075
 30
0.0
  0
VERTEX
  8
0
 10
81.02461604
 20
-56.79180336
 30
0.0
  0
VERTEX
  8
0
 10
77.83448092
 20
-62.21814388
 30
0.0
  0
VERTEX
  8
0
 10
75.12969228
 20
-66.76392872
 30
0.0
  0
VERTEX
  8
0
 10
73.16915576
 20
-69.98331504
 30
0.0
  0
VERTEX
  8
0
 10
72.211777
 20
-71.43046
 30
0.0
  0
VERTEX
  8
0
 10
69.609217
 20
-73.39093
 30
0.0
  0
VERTEX
  8
0
 10
68.079417
 20
-74.15403
 30
0.0
  0
VERTEX
  8
0
 10
63.6985445
 20
-74.15128
 30
0.0
  0
VERTEX
  8
0
 10
59.317672
 20
-74.14853
 30
0.0
  0
VERTEX
  8
0
 10
54.9367995
 20
-74.14578
 30
0.0
  0
VERTEX
  8
0
 10
50.555927
 20
-74.14303
 30
0.0
  0
VERTEX
  8
0
 10
40.7582415312
 20
-74.1263364063
 30
0.0
  0
VERTEX
  8
0
 10
35.40901325
 20
-74.06618125
 30
0.0
  0
VERTEX
  8
0
 10
33.0290218438
 20
-73.9238279688
 30
0.0
  0
VERTEX
  8
0
 10
32.139047
 20
-73.66054
 30
0.0
  0
SEQEND
  8
0
  0
ENDSEC
  0
EOF
