  0
SECTION
  2
HEADER
  9
$ACADVER
  1
AC1009
  9
$INSBASE
 10
0.0
 20
0.0
 30
0.0
  9
$EXTMIN
 10
0.0
 20
0.0
 30
0.0
  9
$EXTMAX
 10
0.0
 20
0.0
 30
0.0
  0
ENDSEC
  0
SECTION
  2
TABLES
  0
TABLE
  2
VPORT
 70
0
  0
ENDTAB
  0
TABLE
  2
LTYPE
 70
1
  0
LTYPE
  2
CONTINUOUS
 70
0
  3
Solid line
 72
65
 73
0
 40
0.0
  0
ENDTAB
  0
TABLE
  2
LAYER
 70
1
  0
LAYER
  2
0
 70
64
 62
7
  6
continuous
  0
ENDTAB
  0
TABLE
  2
STYLE
 70
1
  0
STYLE
  2
STANDARD
 70
0
 40
0
 41
1.0
 50
0.0
 71
0
 42
1
 3
ARIAL.TTF
 4

  0
ENDTAB
  0
TABLE
  2
VIEW
 70
0
  0
ENDTAB
  0
ENDSEC
  0
SECTION
  2
BLOCKS
  0
ENDSEC
  0
SECTION
  2
ENTITIES
  0
POLYLINE
  8
0
 62
0
 70
1
 66
1
 10
0.0
 20
0.0
 30
0.0
  0
VERTEX
  8
0
 10
100.0
 20
-50.0
 30
0.0
  0
VERTEX
  8
0
 10
99.8218527316
 20
-45.7830116918
 30
0.0
  0
VERTEX
  8
0
 10
99.2555831266
 20
-41.4042143545
 30
0.0
  0
VERTEX
  8
0
 10
98.2558139535
 20
-36.9089183149
 30
0.0
  0
VERTEX
  8
0
 10
96.7828418231
 20
-32.3544421749
 30
0.0
  0
VERTEX
  8
0
 10
94.8060941828
 20
-27.8095983795
 30
0.0
  0
VERTEX
  8
0
 10
92.3076923077
 20
-23.3530644989
 30
0.0
  0
VERTEX
  8
0
 10
89.2857142857
 20
-19.0705212934
 30
0.0
  0
VERTEX
  8
0
 10
85.7566765579
 20
-15.0506068502
 30
0.0
  0
VERTEX
  8
0
 10
81.7567567568
 20
-11.3799482096
 30
0.0
  0
VERTEX
  8
0
 10
77.3413897281
 20
-8.13774483217
 30
0.0
  0
VERTEX
  8
0
 10
72.583081571
 20
-5.39053433678
 30
0.0
  0
VERTEX
  8
0
 10
67.5675675676
 20
-3.18781601165
 30
0.0
  0
VERTEX
  8
0
 10
62.3887240356
 20
-1.55911317111
 30
0.0
  0
VERTEX
  8
0
 10
57.1428571429
 20
-0.512834069461
 30
0.0
  0
VERTEX
  8
0
 10
51.9230769231
 20
-0.0369959355131
 30
0.0
  0
VERTEX
  8
0
 10
46.8144044321
 20
-0.101583383057
 30
0.0
  0
VERTEX
  8
0
 10
41.890080429
 20
-0.662091607455
 30
0.0
  0
VERTEX
  8
0
 10
37.2093023256
 20
-1.66369839343
 30
0.0
  0
VERTEX
  8
0
 10
32.8163771712
 20
-3.04552091144
 30
0.0
  0
VERTEX
  8
0
 10
28.7410926366
 20
-4.74451571673
 30
0.0
  0
VERTEX
  8
0
 10
25.0
 20
-6.69872981078
 30
0.0
  0
VERTEX
  8
0
 10
21.4370546318
 20
-8.96150402494
 30
0.0
  0
VERTEX
  8
0
 10
17.9280397022
 20
-11.6413065569
 30
0.0
  0
VERTEX
  8
0
 10
14.5348837209
 20
-14.7547800785
 30
0.0
  0
VERTEX
  8
0
 10
11.327077748
 20
-18.3076494326
 30
0.0
  0
VERTEX
  8
0
 10
8.37950138504
 20
-22.2919850036
 30
0.0
  0
VERTEX
  8
0
 10
5.76923076923
 20
-26.6839314366
 30
0.0
  0
VERTEX
  8
0
 10
3.57142857143
 20
-31.442312776
 30
0.0
  0
VERTEX
  8
0
 10
1.85459940653
 20
-36.5085063209
 30
0.0
  0
VERTEX
  8
0
 10
0.675675675676
 20
-41.807867802
 30
0.0
  0
VERTEX
  8
0
 10
0.0755287009064
 20
-47.2527895046
 30
0.0
  0
VERTEX
  8
0
 10
0.0755287009064
 20
-52.7472104954
 30
0.0
  0
VERTEX
  8
0
 10
0.675675675676
 20
-58.192132198
 30
0.0
  0
VERTEX
  8
0
 10
1.85459940653
 20
-63.4914936791
 30
0.0
  0
VERTEX
  8
0
 10
3.57142857143
 20
-68.557687224
 30
0.0
  0
VERTEX
  8
0
 10
5.76923076923
 20
-73.3160685634
 30
0.0
  0
VERTEX
  8
0
 10
8.37950138504
 20
-77.7080149964
 30
0.0
  0
VERTEX
  8
0
 10
11.327077748
 20
-81.6923505674
 30
0.0
  0
VERTEX
  8
0
 10
14.5348837209
 20
-85.2452199215
 30
0.0
  0
VERTEX
  8
0
 10
17.9280397022
 20
-88.3586934431
 30
0.0
  0
VERTEX
  8
0
 10
21.4370546318
 20
-91.0384959751
 30
0.0
  0
VERTEX
  8
0
 10
25.0
 20
-93.3012701892
 30
0.0
  0
VERTEX
  8
0
 10
28.7410926366
 20
-95.2554842833
 30
0.0
  0
VERTEX
  8
0
 10
32.8163771712
 20
-96.9544790886
 30
0.0
  0
VERTEX
  8
0
 10
37.2093023256
 20
-98.3363016066
 30
0.0
  0
VERTEX
  8
0
 10
41.890080429
 20
-99.3379083925
 30
0.0
  0
VERTEX
  8
0
 10
46.8144044321
 20
-99.8984166169
 30
0.0
  0
VERTEX
  8
0
 10
51.9230769231
 20
-99.9630040645
 30
0.0
  0
VERTEX
  8
0
 10
57.1428571429
 20
-99.4871659305
 30
0.0
  0
VERTEX
  8
0
 10
62.3887240356
 20
-98.4408868289
 30
0.0
  0
VERTEX
  8
0
 10
67.5675675676
 20
-96.8121839883
 30
0.0
  0
VERTEX
  8
0
 10
72.583081571
 20
-94.6094656632
 30
0.0
  0
VERTEX
  8
0
 10
77.3413897281
 20
-91.8622551678
 30
0.0
  0
VERTEX
  8
0
 10
81.7567567568
 20
-88.6200517904
 30
0.0
  0
VERTEX
  8
0
 10
85.7566765579
 20
-84.9493931498
 30
0.0
  0
VERTEX
  8
0
 10
89.2857142857
 20
-80.9294787066
 30
0.0
  0
VERTEX
  8
0
 10
92.3076923077
 20
-76.6469355011
 30
0.0
  0
VERTEX
  8
0
 10
94.8060941828
 20
-72.1904016205
 30
0.0
  0
VERTEX
  8
0
 10
96.7828418231
 20
-67.6455578251
 30
0.0
  0
VERTEX
  8
0
 10
98.2558139535
 20
-63.0910816851
 30
0.0
  0
VERTEX
  8
0
 10
99.2555831266
 20
-58.5957856455
 30
0.0
  0
VERTEX
  8
0
 10
99.8218527316
 20
-54.2169883082
 30
0.0
  0
SEQEND
  8
0
  0
ENDSEC
  0
EOF
