  0
SECTION
  2
HEADER
  9
$ACADVER
  1
AC1009
  9
$INSBASE
 10
0.0
 20
0.0
 30
0.0
  9
$EXTMIN
 10
0.0
 20
0.0
 30
0.0
  9
$EXTMAX
 10
0.0
 20
0.0
 30
0.0
  0
ENDSEC
  0
SECTION
  2
TABLES
  0
TABLE
  2
VPORT
 70
0
  0
ENDTAB
  0
TABLE
  2
LTYPE
 70
1
  0
LTYPE
  2
CONTINUOUS
 70
0
  3
Solid line
 72
65
 73
0
 40
0.0
  0
ENDTAB
  0
TABLE
  2
LAYER
 70
1
  0
LAYER
  2
0
 70
64
 62
7
  6
continuous
  0
ENDTAB
  0
TABLE
  2
STYLE
 70
1
  0
STYLE
  2
STANDARD
 70
0
 40
0
 41
1.0
 50
0.0
 71
0
 42
1
 3
ARIAL.TTF
 4

  0
ENDTAB
  0
TABLE
  2
VIEW
 70
0
  0
ENDTAB
  0
ENDSEC
  0
SECTION
  2
BLOCKS
  0
ENDSEC
  0
SECTION
  2
ENTITIES
  0
POLYLINE
  8
0
 62
0
 70
0
 66
1
 10
0.0
 20
0.0
 30
0.0
  0
VERTEX
  8
0
 10
74.935993
 20
-37.5
 30
0.0
  0
VERTEX
  8
0
 10
74.7029888942
 20
-33.3297255205
 30
0.0
  0
VERTEX
  8
0
 10
73.9508352895
 20
-28.9682839595
 30
0.0
  0
VERTEX
  8
0
 10
72.6070256935
 20
-24.501910954
 30
0.0
  0
VERTEX
  8
0
 10
70.6164553462
 20
-20.0427964094
 30
0.0
  0
VERTEX
  8
0
 10
67.9516659478
 20
-15.7250232399
 30
0.0
  0
VERTEX
  8
0
 10
64.6219949286
 20
-11.6959118938
 30
0.0
  0
VERTEX
  8
0
 10
60.6792806399
 20
-8.10315457548
 30
0.0
  0
VERTEX
  8
0
 10
56.2179965
 20
-5.0794790461
 30
0.0
  0
VERTEX
  8
0
 10
51.3687746088
 20
-2.72773141214
 30
0.0
  0
VERTEX
  8
0
 10
46.2859983571
 20
-1.10961933746
 30
0.0
  0
VERTEX
  8
0
 10
41.1318500672
 20
-0.240595321641
 30
0.0
  0
VERTEX
  8
0
 10
36.0601541154
 20
-0.091706591658
 30
0.0
  0
VERTEX
  8
0
 10
31.2031624677
 20
-0.597379375058
 30
0.0
  0
VERTEX
  8
0
 10
26.6632651842
 20
-1.6667926299
 30
0.0
  0
VERTEX
  8
0
 10
22.5100691929
 20
-3.19612928115
 30
0.0
  0
VERTEX
  8
0
 10
18.7820035
 20
-5.0794790461
 30
0.0
  0
VERTEX
  8
0
 10
15.2869419129
 20
-7.36640376069
 30
0.0
  0
VERTEX
  8
0
 10
11.8858995263
 20
-10.1985086704
 30
0.0
  0
VERTEX
  8
0
 10
8.68981183871
 20
-13.5954684211
 30
0.0
  0
VERTEX
  8
0
 10
5.82339053846
 20
-17.5489101822
 30
0.0
  0
VERTEX
  8
0
 10
3.41648398507
 20
-22.0155720817
 30
0.0
  0
VERTEX
  8
0
 10
1.59200671429
 20
-26.9137074436
 30
0.0
  0
VERTEX
  8
0
 10
0.451944751295
 20
-32.1245768367
 30
0.0
  0
VERTEX
  8
0
 10
0.064007
 20
-37.5
 30
0.0
  0
VERTEX
  8
0
 10
0.451944751295
 20
-42.8754231633
 30
0.0
  0
VERTEX
  8
0
 10
1.59200671429
 20
-48.0862925564
 30
0.0
  0
VERTEX
  8
0
 10
3.41648398507
 20
-52.9844279183
 30
0.0
  0
VERTEX
  8
0
 10
5.82339053846
 20
-57.4510898178
 30
0.0
  0
VERTEX
  8
0
 10
8.68981183871
 20
-61.4045315789
 30
0.0
  0
VERTEX
  8
0
 10
11.8858995263
 20
-64.8014913296
 30
0.0
  0
VERTEX
  8
0
 10
15.2869419129
 20
-67.6335962393
 30
0.0
  0
VERTEX
  8
0
 10
18.7820035
 20
-69.9205209539
 30
0.0
  0
VERTEX
  8
0
 10
22.5100691929
 20
-71.8038707189
 30
0.0
  0
VERTEX
  8
0
 10
26.6632651842
 20
-73.3332073701
 30
0.0
  0
VERTEX
  8
0
 10
31.2031624677
 20
-74.4026206249
 30
0.0
  0
VERTEX
  8
0
 10
36.0601541154
 20
-74.9082934083
 30
0.0
  0
VERTEX
  8
0
 10
41.1318500672
 20
-74.7594046784
 30
0.0
  0
VERTEX
  8
0
 10
46.2859983571
 20
-73.8903806625
 30
0.0
  0
VERTEX
  8
0
 10
51.3687746088
 20
-72.2722685879
 30
0.0
  0
VERTEX
  8
0
 10
56.2179965
 20
-69.9205209539
 30
0.0
  0
VERTEX
  8
0
 10
60.6792806399
 20
-66.8968454245
 30
0.0
  0
VERTEX
  8
0
 10
64.6219949286
 20
-63.3040881062
 30
0.0
  0
VERTEX
  8
0
 10
67.9516659478
 20
-59.2749767601
 30
0.0
  0
VERTEX
  8
0
 10
70.6164553462
 20
-54.9572035906
 30
0.0
  0
VERTEX
  8
0
 10
72.6070256935
 20
-50.498089046
 30
0.0
  0
VERTEX
  8
0
 10
73.9508352895
 20
-46.0317160405
 30
0.0
  0
VERTEX
  8
0
 10
74.7029888942
 20
-41.6702744795
 30
0.0
  0
VERTEX
  8
0
 10
74.935993
 20
-37.5
 30
0.0
  0
SEQEND
  8
0
  0
ENDSEC
  0
EOF
