  0
SECTION
  2
HEADER
  9
$ACADVER
  1
AC1009
  9
$INSBASE
 10
0.0
 20
0.0
 30
0.0
  9
$EXTMIN
 10
0.0
 20
0.0
 30
0.0
  9
$EXTMAX
 10
0.0
 20
0.0
 30
0.0
  0
ENDSEC
  0
SECTION
  2
TABLES
  0
TABLE
  2
VPORT
 70
0
  0
ENDTAB
  0
TABLE
  2
LTYPE
 70
1
  0
LTYPE
  2
CONTINUOUS
 70
0
  3
Solid line
 72
65
 73
0
 40
0.0
  0
ENDTAB
  0
TABLE
  2
LAYER
 70
1
  0
LAYER
  2
0
 70
64
 62
7
  6
continuous
  0
ENDTAB
  0
TABLE
  2
STYLE
 70
1
  0
STYLE
  2
STANDARD
 70
0
 40
0
 41
1.0
 50
0.0
 71
0
 42
1
 3
ARIAL.TTF
 4

  0
ENDTAB
  0
TABLE
  2
VIEW
 70
0
  0
ENDTAB
  0
ENDSEC
  0
SECTION
  2
BLOCKS
  0
ENDSEC
  0
SECTION
  2
ENTITIES
  0
POLYLINE
  8
0
 62
0
 70
1
 66
1
 10
0.0
 20
0.0
 30
0.0
  0
VERTEX
  8
0
 10
32.679927
 20
-73.63261
 30
0.0
  0
VERTEX
  8
0
 10
29.308307
 20
-70.14741
 30
0.0
  0
VERTEX
  8
0
 10
28.7821810496
 20
-68.0616556268
 30
0.0
  0
VERTEX
  8
0
 10
27.9281362945
 20
-63.8320627697
 30
0.0
  0
VERTEX
  8
0
 10
26.8957595219
 20
-58.3024525364
 30
0.0
  0
VERTEX
  8
0
 10
25.834637519
 20
-52.316646035
 30
0.0
  0
VERTEX
  8
0
 10
24.8943570729
 20
-46.7184643732
 30
0.0
  0
VERTEX
  8
0
 10
24.2245049708
 20
-42.3517286589
 30
0.0
  0
VERTEX
  8
0
 10
23.974668
 20
-40.06026
 30
0.0
  0
VERTEX
  8
0
 10
24.702205375
 20
-37.3493075
 30
0.0
  0
VERTEX
  8
0
 10
28.211237
 20
-31.72576
 30
0.0
  0
VERTEX
  8
0
 10
29.5690873499
 20
-29.6709186297
 30
0.0
  0
VERTEX
  8
0
 10
31.1191369417
 20
-27.313356793
 30
0.0
  0
VERTEX
  8
0
 10
32.9993107318
 20
-24.4418136152
 30
0.0
  0
VERTEX
  8
0
 10
35.3475336764
 20
-20.8450282216
 30
0.0
  0
VERTEX
  8
0
 10
38.3017307318
 20
-16.3117397376
 30
0.0
  0
VERTEX
  8
0
 10
41.9998268542
 20
-10.6306872886
 30
0.0
  0
VERTEX
  8
0
 10
46.579747
 20
-3.59061
 30
0.0
  0
VERTEX
  8
0
 10
48.776327
 20
-0.21346
 30
0.0
  0
VERTEX
  8
0
 10
51.899407
 20
-0.38013
 30
0.0
  0
VERTEX
  8
0
 10
55.6833260625
 20
-0.7199425
 30
0.0
  0
VERTEX
  8
0
 10
59.5630745
 20
-1.3358525
 30
0.0
  0
VERTEX
  8
0
 10
63.4867466875
 20
-2.21789625
 30
0.0
  0
VERTEX
  8
0
 10
67.402437
 20
-3.35611
 30
0.0
  0
VERTEX
  8
0
 10
72.1311262578
 20
-5.13828785156
 30
0.0
  0
VERTEX
  8
0
 10
76.5728779375
 20
-7.3089115625
 30
0.0
  0
VERTEX
  8
0
 10
80.6821391484
 20
-9.82955511719
 30
0.0
  0
VERTEX
  8
0
 10
84.413357
 20
-12.6617925
 30
0.0
  0
VERTEX
  8
0
 10
87.7209786016
 20
-15.7671976953
 30
0.0
  0
VERTEX
  8
0
 10
90.5594510625
 20
-19.1073446875
 30
0.0
  0
VERTEX
  8
0
 10
92.8832214922
 20
-22.6438074609
 30
0.0
  0
VERTEX
  8
0
 10
94.646737
 20
-26.33816
 30
0.0
  0
VERTEX
  8
0
 10
95.81026825
 20
-29.8993825
 30
0.0
  0
VERTEX
  8
0
 10
95.425807
 20
-31.81947
 30
0.0
  0
VERTEX
  8
0
 10
94.4508265117
 20
-33.6000628711
 30
0.0
  0
VERTEX
  8
0
 10
92.6045887187
 20
-36.8661604687
 30
0.0
  0
VERTEX
  8
0
 10
90.1233903789
 20
-41.2079312695
 30
0.0
  0
VERTEX
  8
0
 10
87.24352825
 20
-46.21554375
 30
0.0
  0
VERTEX
  8
0
 10
84.2012990898
 20
-51.4791663867
 30
0.0
  0
VERTEX
  8
0
 10
81.2329996563
 20
-56.5889676562
 30
0.0
  0
VERTEX
  8
0
 10
78.574926707
 20
-61.1351160352
 30
0.0
  0
VERTEX
  8
0
 10
76.463377
 20
-64.70778
 30
0.0
  0
VERTEX
  8
0
 10
73.4261432963
 20
-69.6152851852
 30
0.0
  0
VERTEX
  8
0
 10
71.459134037
 20
-72.1172148148
 30
0.0
  0
VERTEX
  8
0
 10
69.654447
 20
-73.36838
 30
0.0
  0
VERTEX
  8
0
 10
68.079417
 20
-74.15403
 30
0.0
  0
VERTEX
  8
0
 10
63.780342
 20
-74.151505
 30
0.0
  0
VERTEX
  8
0
 10
59.481267
 20
-74.14898
 30
0.0
  0
VERTEX
  8
0
 10
55.182192
 20
-74.146455
 30
0.0
  0
VERTEX
  8
0
 10
50.883117
 20
-74.14393
 30
0.0
  0
VERTEX
  8
0
 10
41.1531724687
 20
-74.128065
 30
0.0
  0
VERTEX
  8
0
 10
35.90457825
 20
-74.06651
 30
0.0
  0
VERTEX
  8
0
 10
33.5944559062
 20
-73.915825
 30
0.0
  0
VERTEX
  8
0
 10
32.679927
 20
-73.63257
 30
0.0
  0
SEQEND
  8
0
  0
ENDSEC
  0
EOF
