  0
SECTION
  2
HEADER
  9
$ACADVER
  1
AC1009
  9
$INSBASE
 10
0.0
 20
0.0
 30
0.0
  9
$EXTMIN
 10
0.0
 20
0.0
 30
0.0
  9
$EXTMAX
 10
0.0
 20
0.0
 30
0.0
  0
ENDSEC
  0
SECTION
  2
TABLES
  0
TABLE
  2
VPORT
 70
0
  0
ENDTAB
  0
TABLE
  2
LTYPE
 70
1
  0
LTYPE
  2
CONTINUOUS
 70
0
  3
Solid line
 72
65
 73
0
 40
0.0
  0
ENDTAB
  0
TABLE
  2
LAYER
 70
1
  0
LAYER
  2
0
 70
64
 62
7
  6
continuous
  0
ENDTAB
  0
TABLE
  2
STYLE
 70
1
  0
STYLE
  2
STANDARD
 70
0
 40
0
 41
1.0
 50
0.0
 71
0
 42
1
 3
ARIAL.TTF
 4

  0
ENDTAB
  0
TABLE
  2
VIEW
 70
0
  0
ENDTAB
  0
ENDSEC
  0
SECTION
  2
BLOCKS
  0
ENDSEC
  0
SECTION
  2
ENTITIES
  0
POLYLINE
  8
0
 62
0
 70
1
 66
1
 10
0.0
 20
0.0
 30
0.0
  0
VERTEX
  8
0
 10
58.902149
 20
-57.85162
 30
0.0
  0
VERTEX
  8
0
 10
58.9241156667
 20
-54.34314
 30
0.0
  0
VERTEX
  8
0
 10
58.9460823333
 20
-50.83466
 30
0.0
  0
VERTEX
  8
0
 10
58.968049
 20
-47.32618
 30
0.0
  0
VERTEX
  8
0
 10
61.716819
 20
-47.29223
 30
0.0
  0
VERTEX
  8
0
 10
64.465589
 20
-47.25828
 30
0.0
  0
VERTEX
  8
0
 10
67.214369
 20
-47.22433
 30
0.0
  0
VERTEX
  8
0
 10
69.963149
 20
-47.19038
 30
0.0
  0
VERTEX
  8
0
 10
69.929299
 20
-44.19909
 30
0.0
  0
VERTEX
  8
0
 10
69.895449
 20
-41.2078
 30
0.0
  0
VERTEX
  8
0
 10
69.861549
 20
-38.2165
 30
0.0
  0
VERTEX
  8
0
 10
69.827649
 20
-35.2252
 30
0.0
  0
VERTEX
  8
0
 10
65.4711565
 20
-35.2252
 30
0.0
  0
VERTEX
  8
0
 10
61.114664
 20
-35.2252
 30
0.0
  0
VERTEX
  8
0
 10
56.7581715
 20
-35.2252
 30
0.0
  0
VERTEX
  8
0
 10
52.401679
 20
-35.2252
 30
0.0
  0
VERTEX
  8
0
 10
48.045164
 20
-35.2252
 30
0.0
  0
VERTEX
  8
0
 10
43.688649
 20
-35.2252
 30
0.0
  0
VERTEX
  8
0
 10
39.332134
 20
-35.2252
 30
0.0
  0
VERTEX
  8
0
 10
34.975619
 20
-35.2252
 30
0.0
  0
VERTEX
  8
0
 10
34.941719
 20
-38.21896
 30
0.0
  0
VERTEX
  8
0
 10
34.907819
 20
-41.21272
 30
0.0
  0
VERTEX
  8
0
 10
34.873969
 20
-44.20648
 30
0.0
  0
VERTEX
  8
0
 10
34.840119
 20
-47.20024
 30
0.0
  0
VERTEX
  8
0
 10
37.809884
 20
-47.20024
 30
0.0
  0
VERTEX
  8
0
 10
40.779649
 20
-47.20024
 30
0.0
  0
VERTEX
  8
0
 10
43.749414
 20
-47.20024
 30
0.0
  0
VERTEX
  8
0
 10
46.719179
 20
-47.20024
 30
0.0
  0
VERTEX
  8
0
 10
46.719179
 20
-50.6737
 30
0.0
  0
VERTEX
  8
0
 10
46.719179
 20
-54.14716
 30
0.0
  0
VERTEX
  8
0
 10
46.719179
 20
-57.62062
 30
0.0
  0
VERTEX
  8
0
 10
46.7422593704
 20
-62.8924385185
 30
0.0
  0
VERTEX
  8
0
 10
46.8027552963
 20
-66.6964414815
 30
0.0
  0
VERTEX
  8
0
 10
46.887549
 20
-68.20908
 30
0.0
  0
VERTEX
  8
0
 10
48.736674
 20
-68.327765
 30
0.0
  0
VERTEX
  8
0
 10
52.946019
 20
-68.37715
 30
0.0
  0
VERTEX
  8
0
 10
55.891069
 20
-68.37715
 30
0.0
  0
VERTEX
  8
0
 10
58.836119
 20
-68.37715
 30
0.0
  0
VERTEX
  8
0
 10
58.858129
 20
-64.86864
 30
0.0
  0
VERTEX
  8
0
 10
58.880139
 20
-61.36013
 30
0.0
  0
SEQEND
  8
0
  0
ENDSEC
  0
EOF
