  0
SECTION
  2
HEADER
  9
$ACADVER
  1
AC1009
  9
$INSBASE
 10
0.0
 20
0.0
 30
0.0
  9
$EXTMIN
 10
0.0
 20
0.0
 30
0.0
  9
$EXTMAX
 10
0.0
 20
0.0
 30
0.0
  0
ENDSEC
  0
SECTION
  2
TABLES
  0
TABLE
  2
VPORT
 70
0
  0
ENDTAB
  0
TABLE
  2
LTYPE
 70
1
  0
LTYPE
  2
CONTINUOUS
 70
0
  3
Solid line
 72
65
 73
0
 40
0.0
  0
ENDTAB
  0
TABLE
  2
LAYER
 70
1
  0
LAYER
  2
0
 70
64
 62
7
  6
continuous
  0
ENDTAB
  0
TABLE
  2
STYLE
 70
1
  0
STYLE
  2
STANDARD
 70
0
 40
0
 41
1.0
 50
0.0
 71
0
 42
1
 3
ARIAL.TTF
 4

  0
ENDTAB
  0
TABLE
  2
VIEW
 70
0
  0
ENDTAB
  0
ENDSEC
  0
SECTION
  2
BLOCKS
  0
ENDSEC
  0
SECTION
  2
ENTITIES
  0
POLYLINE
  8
0
 62
0
 70
1
 66
1
 10
0.0
 20
0.0
 30
0.0
  0
VERTEX
  8
0
 10
32.897366
 20
-74.84887
 30
0.0
  0
VERTEX
  8
0
 10
28.0459218694
 20
-73.8828108333
 30
0.0
  0
VERTEX
  8
0
 10
23.4459996222
 20
-72.3569166667
 30
0.0
  0
VERTEX
  8
0
 10
19.128719975
 20
-70.2886225
 30
0.0
  0
VERTEX
  8
0
 10
15.1252036444
 20
-67.6953633333
 30
0.0
  0
VERTEX
  8
0
 10
11.4665713472
 20
-64.5945741667
 30
0.0
  0
VERTEX
  8
0
 10
8.1839438
 20
-61.00369
 30
0.0
  0
VERTEX
  8
0
 10
5.76577538152
 20
-57.62161008
 30
0.0
  0
VERTEX
  8
0
 10
3.74328935616
 20
-53.98344344
 30
0.0
  0
VERTEX
  8
0
 10
2.13051946904
 20
-50.12278576
 30
0.0
  0
VERTEX
  8
0
 10
0.94149946528
 20
-46.07323272
 30
0.0
  0
VERTEX
  8
0
 10
0.19026309
 20
-41.86838
 30
0.0
  0
VERTEX
  8
0
 10
-7.50000000993e-09
 20
-37.52623
 30
0.0
  0
VERTEX
  8
0
 10
0.19026309
 20
-33.18408
 30
0.0
  0
VERTEX
  8
0
 10
1.08158581986
 20
-28.4206958162
 30
0.0
  0
VERTEX
  8
0
 10
2.53189565853
 20
-23.8839761591
 30
0.0
  0
VERTEX
  8
0
 10
4.50801278963
 20
-19.6148403704
 30
0.0
  0
VERTEX
  8
0
 10
6.97675739678
 20
-15.6542077915
 30
0.0
  0
VERTEX
  8
0
 10
9.90494966359
 20
-12.0429977641
 30
0.0
  0
VERTEX
  8
0
 10
13.2594097737
 20
-8.82212962963
 30
0.0
  0
VERTEX
  8
0
 10
17.0069579107
 20
-6.03252272977
 30
0.0
  0
VERTEX
  8
0
 10
21.1144142583
 20
-3.71509640604
 30
0.0
  0
VERTEX
  8
0
 10
25.548599
 20
-1.91077
 30
0.0
  0
VERTEX
  8
0
 10
28.975177037
 20
-0.95778962963
 30
0.0
  0
VERTEX
  8
0
 10
32.5390106296
 20
-0.266587037037
 30
0.0
  0
VERTEX
  8
0
 10
35.400504
 20
0.0
 30
0.0
  0
VERTEX
  8
0
 10
35.76297
 20
-0.33001
 30
0.0
  0
VERTEX
  8
0
 10
35.0169526406
 20
-1.4401996875
 30
0.0
  0
VERTEX
  8
0
 10
33.195795375
 20
-4.2190475
 30
0.0
  0
VERTEX
  8
0
 10
30.5731631719
 20
-8.2473465625
 30
0.0
  0
VERTEX
  8
0
 10
27.422721
 20
-13.10589
 30
0.0
  0
VERTEX
  8
0
 10
24.2505755312
 20
-17.9945701562
 30
0.0
  0
VERTEX
  8
0
 10
21.568841
 20
-22.10492375
 30
0.0
  0
VERTEX
  8
0
 10
19.6602094687
 20
-25.0052104687
 30
0.0
  0
VERTEX
  8
0
 10
18.807373
 20
-26.26369
 30
0.0
  0
VERTEX
  8
0
 10
17.476274
 20
-30.05972
 30
0.0
  0
VERTEX
  8
0
 10
17.6894456667
 20
-31.9879133333
 30
0.0
  0
VERTEX
  8
0
 10
18.3078773333
 20
-35.92476
 30
0.0
  0
VERTEX
  8
0
 10
19.300283
 20
-41.6711
 30
0.0
  0
VERTEX
  8
0
 10
20.7600254074
 20
-49.6075033333
 30
0.0
  0
VERTEX
  8
0
 10
21.6774095926
 20
-53.02894
 30
0.0
  0
VERTEX
  8
0
 10
22.751734
 20
-54.54347
 30
0.0
  0
VERTEX
  8
0
 10
23.6879237812
 20
-55.355264375
 30
0.0
  0
VERTEX
  8
0
 10
25.502027
 20
-55.759325
 30
0.0
  0
VERTEX
  8
0
 10
29.7920579687
 20
-55.897638125
 30
0.0
  0
VERTEX
  8
0
 10
38.156031
 20
-55.91219
 30
0.0
  0
VERTEX
  8
0
 10
42.4906173333
 20
-55.91219
 30
0.0
  0
VERTEX
  8
0
 10
46.8252036667
 20
-55.91219
 30
0.0
  0
VERTEX
  8
0
 10
51.15979
 20
-55.91219
 30
0.0
  0
VERTEX
  8
0
 10
52.290551
 20
-55.35896
 30
0.0
  0
VERTEX
  8
0
 10
53.413521392
 20
-54.69984712
 30
0.0
  0
VERTEX
  8
0
 10
54.581733416
 20
-53.46497376
 30
0.0
  0
VERTEX
  8
0
 10
56.295113744
 20
-50.90838584
 30
0.0
  0
VERTEX
  8
0
 10
59.053589048
 20
-46.28412928
 30
0.0
  0
VERTEX
  8
0
 10
63.357086
 20
-38.84625
 30
0.0
  0
VERTEX
  8
0
 10
66.5356593906
 20
-33.3284001563
 30
0.0
  0
VERTEX
  8
0
 10
69.202688625
 20
-28.68985875
 30
0.0
  0
VERTEX
  8
0
 10
71.0784147969
 20
-25.4177929688
 30
0.0
  0
VERTEX
  8
0
 10
71.883079
 20
-23.99937
 30
0.0
  0
VERTEX
  8
0
 10
72.309451
 20
-23.20125
 30
0.0
  0
VERTEX
  8
0
 10
73.093133
 20
-25.60224
 30
0.0
  0
VERTEX
  8
0
 10
74.1959321481
 20
-29.5874425926
 30
0.0
  0
VERTEX
  8
0
 10
74.8098401852
 20
-33.4263207407
 30
0.0
  0
VERTEX
  8
0
 10
75.0
 20
-37.52623
 30
0.0
  0
VERTEX
  8
0
 10
74.787406536
 20
-41.64970568
 30
0.0
  0
VERTEX
  8
0
 10
74.150284608
 20
-45.64744344
 30
0.0
  0
VERTEX
  8
0
 10
73.089621912
 20
-49.51584136
 30
0.0
  0
VERTEX
  8
0
 10
71.606406144
 20
-53.25129752
 30
0.0
  0
VERTEX
  8
0
 10
69.701625
 20
-56.85021
 30
0.0
  0
VERTEX
  8
0
 10
67.1111245627
 20
-60.6256105831
 30
0.0
  0
VERTEX
  8
0
 10
64.1030278688
 20
-64.029575481
 30
0.0
  0
VERTEX
  8
0
 10
60.7171269883
 20
-67.0345522741
 30
0.0
  0
VERTEX
  8
0
 10
56.9932139913
 20
-69.6129885423
 30
0.0
  0
VERTEX
  8
0
 10
52.9710809475
 20
-71.7373318659
 30
0.0
  0
VERTEX
  8
0
 10
48.6905199271
 20
-73.3800298251
 30
0.0
  0
VERTEX
  8
0
 10
44.191323
 20
-74.51353
 30
0.0
  0
VERTEX
  8
0
 10
40.7135898519
 20
-74.8691855556
 30
0.0
  0
VERTEX
  8
0
 10
36.3077991481
 20
-75.0000011111
 30
0.0
  0
SEQEND
  8
0
  0
ENDSEC
  0
EOF
